{
  "accessors": [
    {
      "bufferView": 3,
      "componentType": 5126,
      "count": 2621,
      "max": [
        4.6632609367370605,
        -0.4544048309326172,
        6.935786247253418
      ],
      "min": [
        -2.6823878288269043,
        -28.425453186035156,
        -9.336673736572266
      ],
      "type": "VEC3"
    },
    {
      "bufferView": 3,
      "byteOffset": 31452,
      "componentType": 5126,
      "count": 2621,
      "max": [
        0.9998037815093994,
        0.9992003440856934,
        0.9999321699142456
      ],
      "min": [
        -0.9999734163284302,
        -0.8314924836158752,
        -0.9999873638153076
      ],
      "type": "VEC3"
    },
    {
      "bufferView": 2,
      "componentType": 5126,
      "count": 2621,
      "max": [
        0.8750000596046448,
        1.0000001192092896
      ],
      "min": [
        0.3749999701976776,
        0.0
      ],
      "type": "VEC2"
    },
    {
      "bufferView": 1,
      "componentType": 5125,
      "count": 10662,
      "type": "SCALAR"
    },
    {
      "bufferView": 3,
      "byteOffset": 62904,
      "componentType": 5126,
      "count": 65532,
      "max": [
        0.757290244102478,
        3.6220297813415527,
        1.9024348258972168
      ],
      "min": [
        -0.5023436546325684,
        -1.2285189628601074,
        -0.9855758547782898
      ],
      "type": "VEC3"
    },
    {
      "bufferView": 3,
      "byteOffset": 849288,
      "componentType": 5126,
      "count": 65532,
      "max": [
        0.9999884366989136,
        0.999731183052063,
        0.9999994039535522
      ],
      "min": [
        -0.9999872446060181,
        -0.8461358547210693,
        -0.9999786615371704
      ],
      "type": "VEC3"
    },
    {
      "bufferView": 2,
      "byteOffset": 20968,
      "componentType": 5126,
      "count": 65532,
      "max": [
        1.0,
        1.0
      ],
      "min": [
        0.0,
        0.0
      ],
      "type": "VEC2"
    },
    {
      "bufferView": 1,
      "byteOffset": 42648,
      "componentType": 5125,
      "count": 346377,
      "type": "SCALAR"
    },
    {
      "bufferView": 3,
      "byteOffset": 1635672,
      "componentType": 5126,
      "count": 65532,
      "max": [
        0.7512671947479248,
        3.852834701538086,
        1.9051063060760498
      ],
      "min": [
        -0.3418448567390442,
        1.3292326927185059,
        -0.9248054623603821
      ],
      "type": "VEC3"
    },
    {
      "bufferView": 3,
      "byteOffset": 2422056,
      "componentType": 5126,
      "count": 65532,
      "max": [
        0.9999592304229736,
        0.9999979734420776,
        0.9999943971633911
      ],
      "min": [
        -0.9999958276748657,
        -0.7856680154800415,
        -0.9999969005584717
      ],
      "type": "VEC3"
    },
    {
      "bufferView": 2,
      "byteOffset": 545224,
      "componentType": 5126,
      "count": 65532,
      "max": [
        0.0,
        0.0
      ],
      "min": [
        0.0,
        0.0
      ],
      "type": "VEC2"
    },
    {
      "bufferView": 1,
      "byteOffset": 1428156,
      "componentType": 5125,
      "count": 347700,
      "type": "SCALAR"
    },
    {
      "bufferView": 3,
      "byteOffset": 3208440,
      "componentType": 5126,
      "count": 65532,
      "max": [
        0.757148027420044,
        3.8563928604125977,
        1.905876874923706
      ],
      "min": [
        -0.2829923927783966,
        -0.7363266944885254,
        -0.9624778628349304
      ],
      "type": "VEC3"
    },
    {
      "bufferView": 3,
      "byteOffset": 3994824,
      "componentType": 5126,
      "count": 65532,
      "max": [
        0.999971866607666,
        0.9999970197677612,
        0.9999923706054688
      ],
      "min": [
        -0.9987648129463196,
        -0.7375844717025757,
        -0.9999884366989136
      ],
      "type": "VEC3"
    },
    {
      "bufferView": 2,
      "byteOffset": 1069480,
      "componentType": 5126,
      "count": 65532,
      "max": [
        0.0,
        0.0
      ],
      "min": [
        0.0,
        0.0
      ],
      "type": "VEC2"
    },
    {
      "bufferView": 1,
      "byteOffset": 2818956,
      "componentType": 5125,
      "count": 338928,
      "type": "SCALAR"
    },
    {
      "bufferView": 3,
      "byteOffset": 4781208,
      "componentType": 5126,
      "count": 19889,
      "max": [
        0.7560248374938965,
        3.8575730323791504,
        1.8947854042053223
      ],
      "min": [
        -0.30084091424942017,
        1.5177617073059082,
        -0.9331676363945007
      ],
      "type": "VEC3"
    },
    {
      "bufferView": 3,
      "byteOffset": 5019876,
      "componentType": 5126,
      "count": 19889,
      "max": [
        0.9979504346847534,
        0.9999970197677612,
        0.9999072551727295
      ],
      "min": [
        -0.9999743700027466,
        -0.7655988931655884,
        -0.9998940229415894
      ],
      "type": "VEC3"
    },
    {
      "bufferView": 2,
      "byteOffset": 1593736,
      "componentType": 5126,
      "count": 19889,
      "max": [
        0.0,
        0.0
      ],
      "min": [
        0.0,
        0.0
      ],
      "type": "VEC2"
    },
    {
      "bufferView": 1,
      "byteOffset": 4174668,
      "componentType": 5125,
      "count": 71073,
      "type": "SCALAR"
    },
    {
      "bufferView": 5,
      "componentType": 5126,
      "count": 18,
      "max": [
        1.0,
        0.7811146378517151,
        0.6816098093986511,
        0.0,
        0.0929834246635437,
        1.0,
        0.7811174988746643,
        0.0,
        0.9999936819076538,
        0.6958039999008179,
        1.0,
        0.0,
        0.7580279111862183,
        1.1741328239440918,
        0.021854225546121597,
        1.0
      ],
      "min": [
        -0.7309257984161377,
        -0.04435572400689125,
        -0.9976391792297363,
        0.0,
        -0.05835753679275513,
        0.6243842840194702,
        -0.7079847455024719,
        0.0,
        -0.6810908317565918,
        -0.09213657677173615,
        -0.7254065871238708,
        0.0,
        -0.6647778153419495,
        -2.536888599395752,
        -2.3270034790039063,
        1.0
      ],
      "type": "MAT4"
    },
    {
      "bufferView": 0,
      "componentType": 5123,
      "count": 65532,
      "type": "VEC4"
    },
    {
      "bufferView": 4,
      "componentType": 5126,
      "count": 65532,
      "max": [
        1.0,
        0.49999624490737915,
        0.32028675079345703,
        0.0935065746307373
      ],
      "min": [
        0.34142836928367615,
        0.0,
        0.0,
        0.0
      ],
      "type": "VEC4"
    },
    {
      "bufferView": 0,
      "byteOffset": 524256,
      "componentType": 5123,
      "count": 65532,
      "type": "VEC4"
    },
    {
      "bufferView": 4,
      "byteOffset": 1048512,
      "componentType": 5126,
      "count": 65532,
      "max": [
        1.0,
        0.49999624490737915,
        0.11003191024065018,
        0.0540948361158371
      ],
      "min": [
        0.5000037550926208,
        0.0,
        0.0,
        0.0
      ],
      "type": "VEC4"
    },
    {
      "bufferView": 0,
      "byteOffset": 1048512,
      "componentType": 5123,
      "count": 65532,
      "type": "VEC4"
    },
    {
      "bufferView": 4,
      "byteOffset": 2097024,
      "componentType": 5126,
      "count": 65532,
      "max": [
        1.0,
        0.49998539686203003,
        0.3319235146045685,
        0.075350321829319
      ],
      "min": [
        0.33604514598846436,
        0.0,
        0.0,
        0.0
      ],
      "type": "VEC4"
    },
    {
      "bufferView": 0,
      "byteOffset": 1572768,
      "componentType": 5123,
      "count": 19889,
      "type": "VEC4"
    },
    {
      "bufferView": 4,
      "byteOffset": 3145536,
      "componentType": 5126,
      "count": 19889,
      "max": [
        1.0,
        0.49994418025016785,
        0.0,
        0.0
      ],
      "min": [
        0.5000557899475098,
        0.0,
        0.0,
        0.0
      ],
      "type": "VEC4"
    }
  ],
  "asset": {
    "extras": {
      "author": "TheDre (https://sketchfab.com/AndreaG.)",
      "license": "CC-BY-4.0 (http://creativecommons.org/licenses/by/4.0/)",
      "source": "https://sketchfab.com/3d-models/rigged-sculpted-hand-ff5ea8acd9374c249f8a53f4cc225f39",
      "title": "Rigged Sculpted Hand"
    },
    "generator": "Sketchfab-12.66.0",
    "version": "2.0"
  },
  "bufferViews": [
    {
      "buffer": 0,
      "byteLength": 1731880,
      "byteStride": 8,
      "name": "shortBufferViews",
      "target": 34962
    },
    {
      "buffer": 0,
      "byteLength": 4458960,
      "byteOffset": 1731880,
      "name": "floatBufferViews",
      "target": 34963
    },
    {
      "buffer": 0,
      "byteLength": 1752848,
      "byteOffset": 6190840,
      "byteStride": 8,
      "name": "floatBufferViews",
      "target": 34962
    },
    {
      "buffer": 0,
      "byteLength": 5258544,
      "byteOffset": 7943688,
      "byteStride": 12,
      "name": "floatBufferViews",
      "target": 34962
    },
    {
      "buffer": 0,
      "byteLength": 3463760,
      "byteOffset": 13202232,
      "byteStride": 16,
      "name": "floatBufferViews",
      "target": 34962
    },
    {
      "buffer": 0,
      "byteLength": 1152,
      "byteOffset": 16665992,
      "name": "floatBufferViews"
    }
  ],
  "buffers": [
    {
      "byteLength": 16667144,
      "uri": "scene.bin"
    }
  ],
  "materials": [
    {
      "doubleSided": true,
      "name": "Material.002",
      "pbrMetallicRoughness": {
        "baseColorFactor": [
          0.8,
          0.8,
          0.8,
          1.0
        ],
        "metallicFactor": 0.0,
        "roughnessFactor": 0.4
      }
    },
    {
      "doubleSided": true,
      "name": "Material.000"
    }
  ],
  "meshes": [
    {
      "name": "Object_0",
      "primitives": [
        {
          "attributes": {
            "NORMAL": 1,
            "POSITION": 0,
            "TEXCOORD_0": 2
          },
          "indices": 3,
          "material": 0,
          "mode": 4
        }
      ]
    },
    {
      "name": "Object_1",
      "primitives": [
        {
          "attributes": {
            "JOINTS_0": 21,
            "NORMAL": 5,
            "POSITION": 4,
            "TEXCOORD_0": 6,
            "WEIGHTS_0": 22
          },
          "indices": 7,
          "material": 1,
          "mode": 4
        }
      ]
    },
    {
      "name": "Object_2",
      "primitives": [
        {
          "attributes": {
            "JOINTS_0": 23,
            "NORMAL": 9,
            "POSITION": 8,
            "TEXCOORD_0": 10,
            "WEIGHTS_0": 24
          },
          "indices": 11,
          "material": 1,
          "mode": 4
        }
      ]
    },
    {
      "name": "Object_3",
      "primitives": [
        {
          "attributes": {
            "JOINTS_0": 25,
            "NORMAL": 13,
            "POSITION": 12,
            "TEXCOORD_0": 14,
            "WEIGHTS_0": 26
          },
          "indices": 15,
          "material": 1,
          "mode": 4
        }
      ]
    },
    {
      "name": "Object_4",
      "primitives": [
        {
          "attributes": {
            "JOINTS_0": 27,
            "NORMAL": 17,
            "POSITION": 16,
            "TEXCOORD_0": 18,
            "WEIGHTS_0": 28
          },
          "indices": 19,
          "material": 1,
          "mode": 4
        }
      ]
    }
  ],
  "nodes": [
    {
      "children": [
        1
      ],
      "matrix": [
        1.0,
        0.0,
        0.0,
        0.0,
        0.0,
        2.220446049250313e-16,
        -1.0,
        0.0,
        0.0,
        1.0,
        2.220446049250313e-16,
        0.0,
        0.0,
        0.0,
        0.0,
        1.0
      ],
      "name": "Sketchfab_model"
    },
    {
      "children": [
        2
      ],
      "name": "root"
    },
    {
      "children": [
        3,
        5
      ],
      "matrix": [
        1.0,
        0.0,
        0.0,
        0.0,
        0.0,
        2.220446049250313e-16,
        1.0,
        0.0,
        0.0,
        -1.0,
        2.220446049250313e-16,
        0.0,
        0.0,
        0.0,
        0.0,
        1.0
      ],
      "name": "GLTF_SceneRootNode"
    },
    {
      "children": [
        4
      ],
      "matrix": [
        0.18292653560638428,
        0.0,
        0.0,
        0.0,
        0.0,
        0.18292653560638428,
        0.0,
        0.0,
        0.0,
        0.0,
        0.18292653560638428,
        0.0,
        0.13964499533176422,
        3.9520368576049805,
        4.518275737762451,
        1.0
      ],
      "name": "Low Poly Hand_0"
    },
    {
      "mesh": 0,
      "name": "Object_4"
    },
    {
      "children": [
        6
      ],
      "name": "Armature_19"
    },
    {
      "children": [
        7,
        9,
        10,
        11,
        12,
        8
      ],
      "name": "GLTF_created_0"
    },
    {
      "children": [
        13
      ],
      "name": "GLTF_created_0_rootJoint"
    },
    {
      "name": "Sculpted Hand_18"
    },
    {
      "mesh": 1,
      "name": "Object_9",
      "skin": 0
    },
    {
      "mesh": 2,
      "name": "Object_10",
      "skin": 0
    },
    {
      "mesh": 3,
      "name": "Object_11",
      "skin": 0
    },
    {
      "mesh": 4,
      "name": "Object_12",
      "skin": 0
    },
    {
      "children": [
        14
      ],
      "name": "wrist_17",
      "rotation": [
        -0.00934301782399416,
        -0.0016211922047659755,
        0.0221994761377573,
        0.9997085928916931
      ],
      "translation": [
        -0.007122904062271118,
        -1.1758129596710205,
        0.0
      ]
    },
    {
      "children": [
        15,
        18,
        21,
        24,
        27
      ],
      "name": "hand_16",
      "rotation": [
        0.026597417891025543,
        0.9285928010940552,
        0.05310577154159546,
        0.36631643772125244
      ],
      "scale": [
        0.9999999403953552,
        0.9999995827674866,
        0.9999998807907104
      ],
      "translation": [
        -4.4674379751086235e-09,
        1.327085018157959,
        1.6880221664905548e-09
      ]
    },
    {
      "children": [
        16
      ],
      "name": "F2_1_3",
      "rotation": [
        0.03306282311677933,
        0.9362069368362427,
        0.04166842997074127,
        0.3474006652832031
      ],
      "scale": [
        1.0,
        1.000000238418579,
        1.0
      ],
      "translation": [
        -2.2351741790771484e-08,
        2.0192806720733643,
        -1.0244548320770264e-08
      ]
    },
    {
      "children": [
        17
      ],
      "name": "F2_2_2",
      "rotation": [
        -0.3133756220340729,
        -0.08505278825759888,
        -0.005730539094656706,
        0.9457954168319702
      ],
      "scale": [
        1.0,
        1.0000001192092896,
        0.9999998211860657
      ],
      "translation": [
        -6.51925802230835e-09,
        0.7558930516242981,
        1.1175870895385742e-08
      ]
    },
    {
      "name": "F2_3_1",
      "rotation": [
        -0.08555801212787628,
        0.0326949879527092,
        0.0032689443323761225,
        0.9957912564277649
      ],
      "scale": [
        1.0,
        0.9999999403953552,
        1.0
      ],
      "translation": [
        4.6566128730773926e-09,
        0.6507261395454407,
        4.6566128730773926e-08
      ]
    },
    {
      "children": [
        19
      ],
      "name": "F3_1_6",
      "rotation": [
        0.000759544491302222,
        0.9050573706626892,
        0.12129666656255722,
        0.40762442350387573
      ],
      "scale": [
        1.0,
        0.9999995827674866,
        0.9999998211860657
      ],
      "translation": [
        0.373249351978302,
        1.8738340139389038,
        0.32360929250717163
      ]
    },
    {
      "children": [
        20
      ],
      "name": "F3_2_5",
      "rotation": [
        -0.19959306716918945,
        0.004839700181037188,
        0.002871122909709811,
        0.9798628091812134
      ],
      "translation": [
        -5.587935447692871e-08,
        0.747539222240448,
        -2.2817403078079224e-08
      ]
    },
    {
      "name": "F3_3_4",
      "rotation": [
        -0.13281095027923584,
        0.003953250590711832,
        0.02236180007457733,
        0.9908812046051025
      ],
      "translation": [
        1.0244548320770264e-08,
        0.5956354141235352,
        1.5739351511001587e-07
      ]
    },
    {
      "children": [
        22
      ],
      "name": "F4_1_9",
      "rotation": [
        0.06813229620456696,
        0.9091089367866516,
        0.08450932055711746,
        0.40216565132141113
      ],
      "scale": [
        1.0000001192092896,
        1.000000238418579,
        1.0000001192092896
      ],
      "translation": [
        0.5942703485488892,
        1.6172230243682861,
        0.6439691781997681
      ]
    },
    {
      "children": [
        23
      ],
      "name": "F4_2_8",
      "rotation": [
        -0.23599663376808167,
        0.02071157842874527,
        -0.02941031940281391,
        0.9710878729820251
      ],
      "scale": [
        1.0,
        0.9999998807907104,
        0.9999999403953552
      ],
      "translation": [
        -3.440072759985924e-08,
        0.7660723924636841,
        -7.450580596923828e-09
      ]
    },
    {
      "name": "F4_3_7",
      "rotation": [
        -0.1235579252243042,
        0.0024344066623598337,
        -0.0013331607915461063,
        0.9923334717750549
      ],
      "scale": [
        0.9999998807907104,
        1.0,
        0.9999998807907104
      ],
      "translation": [
        6.030313670635223e-08,
        0.45864909887313843,
        -1.7008278518915176e-07
      ]
    },
    {
      "children": [
        25
      ],
      "name": "F1_1_12",
      "rotation": [
        -0.0017503980780020356,
        0.9068414568901062,
        0.10256132483482361,
        0.4087991416454315
      ],
      "scale": [
        0.9999999403953552,
        0.9999997615814209,
        0.9999999403953552
      ],
      "translation": [
        -0.34156373143196106,
        1.922602653503418,
        -0.33239516615867615
      ]
    },
    {
      "children": [
        26
      ],
      "name": "F1_2_11",
      "rotation": [
        -0.25901708006858826,
        0.002425208454951644,
        0.013043948449194431,
        0.9657816290855408
      ],
      "scale": [
        0.9999999403953552,
        0.9999999403953552,
        0.9999998807907104
      ],
      "translation": [
        2.1740561351180077e-08,
        0.8107556700706482,
        7.450580596923828e-09
      ]
    },
    {
      "name": "F1_3_10",
      "rotation": [
        -0.10742872208356857,
        0.0016176054487004876,
        0.000668560154736042,
        0.9942112565040588
      ],
      "scale": [
        0.9999999403953552,
        1.0,
        0.9999998807907104
      ],
      "translation": [
        2.444721758365631e-08,
        0.5867062211036682,
        6.05359673500061e-09
      ]
    },
    {
      "children": [
        28
      ],
      "name": "TH_1_15",
      "rotation": [
        0.174342080950737,
        -0.8416219353675842,
        0.2933635711669922,
        0.4185870587825775
      ],
      "scale": [
        0.9999999403953552,
        0.9999997615814209,
        0.9999999403953552
      ],
      "translation": [
        -0.28087571263313293,
        0.07045792788267136,
        -0.20120173692703247
      ]
    },
    {
      "children": [
        29
      ],
      "name": "TH_2_14",
      "rotation": [
        -0.1320013552904129,
        -0.06392452865839005,
        0.02282022126019001,
        0.9889229536056519
      ],
      "scale": [
        1.0000001192092896,
        1.0,
        1.0
      ],
      "translation": [
        -2.0023435354232788e-08,
        1.5860854387283325,
        2.9802322387695313e-08
      ]
    },
    {
      "name": "TH_3_13",
      "rotation": [
        -0.24094045162200928,
        0.008984326384961605,
        -0.013587289489805698,
        0.9704031944274902
      ],
      "scale": [
        1.0,
        1.0,
        1.0000001192092896
      ],
      "translation": [
        7.450580596923828e-09,
        0.5690506100654602,
        4.7497451305389404e-08
      ]
    }
  ],
  "scene": 0,
  "scenes": [
    {
      "name": "Sketchfab_Scene",
      "nodes": [
        0
      ]
    }
  ],
  "skins": [
    {
      "inverseBindMatrices": 20,
      "joints": [
        7,
        13,
        14,
        15,
        16,
        17,
        18,
        19,
        20,
        21,
        22,
        23,
        24,
        25,
        26,
        27,
        28,
        29
      ],
      "skeleton": 7
    }
  ]
}
